Coordinates
version=1
nRows=6
nColumns=46
inDegrees=yes

Units are S.I. units (second, meters, Newtons, ...)
Angles are in degrees.

endheader
time	pelvis_tilt	pelvis_list	pelvis_rotation	pelvis_tx	pelvis_ty	pelvis_tz	bb_angle	bb_tx	bb_ty	bb_tz	hip_flexion_r	hip_adduction_r	hip_rotation_r	knee_angle_r	knee_angle_r_beta	ankle_angle_r	subtalar_angle_r	mtp_angle_r	crank_angle_r	hip_flexion_l	hip_adduction_l	hip_rotation_l	knee_angle_l	knee_angle_l_beta	ankle_angle_l	subtalar_angle_l	mtp_angle_l	crank_angle_l	lumbar_extension	lumbar_bending	lumbar_rotation	arm_flex_r	arm_add_r	arm_rot_r	elbow_flex_r	pro_sup_r	wrist_flex_r	wrist_dev_r	arm_flex_l	arm_add_l	arm_rot_l	elbow_flex_l	pro_sup_l	wrist_flex_l	wrist_dev_l
      0.00000000	    -28.85740110	     -2.58769755	     -4.16215320	      0.14615233	      1.02237452	     -0.22004061	      0.00000000	      0.50000000	      0.00000000	      0.25000000	     88.41097883	     -0.44499702	      1.15299159	     77.02444210	      1.34433012	     11.39837487	     -2.28397881	      0.00000000	      0.00000000	     55.87689875	     -5.68297987	      4.88149872	     74.30971962	      1.29694927	     27.14147265	    -12.21638155	      0.00000000	      0.00000000	    -36.87063198	      1.47320990	      3.62913745	     85.83784640	     -3.54423077	     33.76380037	     32.56855607	     37.44473602	      0.00000000	      0.00000000	     81.25373307	     -4.29497489	     19.92801207	     35.89836544	     37.80188808	      0.00000000	      0.00000000
      0.00500000	    -28.86151472	     -2.57567118	     -4.15045564	      0.14614064	      1.02237164	     -0.22006774	      0.00000000	      0.50000000	      0.00000000	      0.25000000	     88.42230944	     -0.45770376	      1.16795982	     77.03445634	      1.34450490	     11.42319144	     -2.26309518	      0.00000000	      0.00000000	     55.87879584	     -5.66235434	      4.87897735	     74.29843958	      1.29675240	     27.12744165	    -12.19638339	      0.00000000	      0.00000000	    -36.86526815	      1.47657900	      3.59265664	     85.89548614	     -3.54847895	     33.92255012	     32.39399416	     37.90822539	      0.00000000	      0.00000000	     81.25248321	     -4.39149913	     20.07379073	     35.85513868	     38.26034076	      0.00000000	      0.00000000
      0.01000000	    -28.83052202	     -2.59193744	     -4.14082319	      0.14612146	      1.02241467	     -0.22010930	      0.00000000	      0.50000000	      0.00000000	      0.25000000	     88.39338541	     -0.46858285	      1.15631356	     77.04696968	      1.34472330	     11.44130306	     -2.22492844	      0.00000000	      0.00000000	     55.84430028	     -5.65896028	      4.89476264	     74.29161072	      1.29663321	     27.13378544	    -12.24604664	      0.00000000	      0.00000000	    -36.91613933	      1.50303332	      3.58482677	     85.99839038	     -3.72290094	     34.61213082	     32.31826371	     38.49069568	      0.00000000	      0.00000000	     81.20639052	     -4.58040469	     20.41050203	     36.02521032	     38.73150167	      0.00000000	      0.00000000
      0.01500000	    -28.81510994	     -2.56801855	     -4.12551349	      0.14605491	      1.02240842	     -0.21997746	      0.00000000	      0.50000000	      0.00000000	      0.25000000	     88.39813786	     -0.46475083	      1.20510601	     77.08893445	      1.34545572	     11.50709024	     -2.17197839	      0.00000000	      0.00000000	     55.81735321	     -5.64211228	      4.90792622	     74.28711198	      1.29655470	     27.16432499	    -12.20025390	      0.00000000	      0.00000000	    -36.92983070	      1.45600733	      3.61568475	     85.95149761	     -3.69396396	     34.14025091	     32.27879283	     38.71008428	      0.00000000	      0.00000000	     81.22485088	     -4.51681985	     20.31862238	     36.00465852	     38.96107170	      0.00000000	      0.00000000
      0.02000000	    -28.77431393	     -2.59595455	     -4.09251769	      0.14603556	      1.02251588	     -0.22014217	      0.00000000	      0.50000000	      0.00000000	      0.25000000	     88.38141392	     -0.55532183	      1.13301799	     77.16708433	      1.34681970	     11.57220819	     -2.07876884	      0.00000000	      0.00000000	     55.77285885	     -5.61770183	      4.96048215	     74.27977040	      1.29642656	     27.18921057	    -12.22974740	      0.00000000	      0.00000000	    -36.95677935	      1.51785082	      3.57872845	     85.99151570	     -3.60411767	     33.91636970	     32.15981332	     38.98158108	      0.00000000	      0.00000000	     81.24282066	     -4.53555195	     20.27717354	     35.89768016	     39.21005854	      0.00000000	      0.00000000
      0.02500000	    -28.98844063	     -2.59081226	     -4.13646388	      0.14595746	      1.02227525	     -0.21990173	      0.00000000	      0.50000000	      0.00000000	      0.25000000	     88.60236315	     -0.43001194	      1.18950282	     77.13029755	      1.34617765	     11.52296751	     -2.48909620	      0.00000000	      0.00000000	     56.00385595	     -5.65569827	      4.94156672	     74.26675514	      1.29619940	     27.05392923	    -12.47839424	      0.00000000	      0.00000000	    -36.87236009	      1.44583824	      3.52117576	     85.12531135	     -3.94070276	     32.21301655	     34.66158533	     39.62715050	      0.00000000	      0.00000000	     80.38851212	     -4.88901821	     19.24444979	     38.40489426	     39.86229960	      0.00000000	      0.00000000
